<svg xmlns="http://www.w3.org/2000/svg" viewBox="0 0 220 48" width="220" height="48">
  <!-- sentrux — Entropy Arrow: ░▒▓██ — chaos → order -->
  <!-- Each block = 4col × 5row pixel grid, 3×3 pixels, 4px pitch -->
  <!-- ░ 25% → ▒ 50% → ▓ 75% → █ 100% → █ 100% -->

  <!-- ░ Light shade (25% fill) — chaos, scattered -->
  <rect x="8" y="14" width="3" height="3" fill="#00d4aa"/>
  <rect x="16" y="18" width="3" height="3" fill="#00d4aa"/>
  <rect x="4" y="22" width="3" height="3" fill="#00d4aa"/>
  <rect x="12" y="26" width="3" height="3" fill="#00d4aa"/>
  <rect x="8" y="30" width="3" height="3" fill="#00d4aa"/>

  <!-- ▒ Medium shade (50% fill) — emerging pattern -->
  <rect x="22" y="14" width="3" height="3" fill="#00d4aa"/>
  <rect x="30" y="14" width="3" height="3" fill="#00d4aa"/>
  <rect x="26" y="18" width="3" height="3" fill="#00d4aa"/>
  <rect x="34" y="18" width="3" height="3" fill="#00d4aa"/>
  <rect x="22" y="22" width="3" height="3" fill="#00d4aa"/>
  <rect x="30" y="22" width="3" height="3" fill="#00d4aa"/>
  <rect x="26" y="26" width="3" height="3" fill="#00d4aa"/>
  <rect x="34" y="26" width="3" height="3" fill="#00d4aa"/>
  <rect x="22" y="30" width="3" height="3" fill="#00d4aa"/>
  <rect x="30" y="30" width="3" height="3" fill="#00d4aa"/>

  <!-- ▓ Dark shade (75% fill) — almost ordered -->
  <rect x="40" y="14" width="3" height="3" fill="#00d4aa"/>
  <rect x="44" y="14" width="3" height="3" fill="#00d4aa"/>
  <rect x="52" y="14" width="3" height="3" fill="#00d4aa"/>
  <rect x="40" y="18" width="3" height="3" fill="#00d4aa"/>
  <rect x="48" y="18" width="3" height="3" fill="#00d4aa"/>
  <rect x="52" y="18" width="3" height="3" fill="#00d4aa"/>
  <rect x="40" y="22" width="3" height="3" fill="#00d4aa"/>
  <rect x="44" y="22" width="3" height="3" fill="#00d4aa"/>
  <rect x="48" y="22" width="3" height="3" fill="#00d4aa"/>
  <rect x="44" y="26" width="3" height="3" fill="#00d4aa"/>
  <rect x="48" y="26" width="3" height="3" fill="#00d4aa"/>
  <rect x="52" y="26" width="3" height="3" fill="#00d4aa"/>
  <rect x="40" y="30" width="3" height="3" fill="#00d4aa"/>
  <rect x="44" y="30" width="3" height="3" fill="#00d4aa"/>
  <rect x="52" y="30" width="3" height="3" fill="#00d4aa"/>

  <!-- █ Full block — ordered (solid) -->
  <rect x="58" y="14" width="15" height="19" fill="#00d4aa"/>

  <!-- █ Full block — crystallized (solid) -->
  <rect x="77" y="14" width="15" height="19" fill="#00d4aa"/>

  <!-- Wordmark -->
  <text x="104" y="30" font-family="'SF Mono', 'Cascadia Code', 'JetBrains Mono', 'Fira Code', ui-monospace, monospace" font-size="22" font-weight="700" fill="#e8e6e3" letter-spacing="0.5">sentrux</text>
</svg>
